<svg width="12" height="16" fill="none" xmlns="http://www.w3.org/2000/svg"><path d="M6 .938c-.703 0-1.36.181-1.969.544A4.045 4.045 0 0 0 2.59 2.924a3.78 3.78 0 0 0-.527 1.951v1.688H.375v9h11.25v-9H9.937V4.875c0-.703-.181-1.354-.544-1.951A3.867 3.867 0 0 0 7.95 1.482 3.687 3.687 0 0 0 6 .938Zm0 1.125c.504 0 .973.128 1.406.386.434.246.774.586 1.02 1.02.258.433.386.902.386 1.406v1.688H3.189V4.875c0-.504.123-.973.369-1.406a2.792 2.792 0 0 1 1.037-1.02A2.703 2.703 0 0 1 6 2.063ZM1.5 7.686h9v6.75h-9v-6.75Z" fill="#8181A5"/></svg>